<?xml version="1.0" encoding="UTF-8"?>
<svg width="194px" height="23px" viewBox="0 0 194 23" version="1.1" xmlns="http://www.w3.org/2000/svg" xmlns:xlink="http://www.w3.org/1999/xlink">
    <title>Jimny_Suzuki</title>
    <defs>
        <polygon id="path-1" points="0 0 182 0 182 13 0 13"></polygon>
    </defs>
    <g id="Jimny_Suzuki" stroke="none" stroke-width="1" fill="none" fill-rule="evenodd">
        <g id="Group-3" transform="translate(6.000000, 5.000000)">
            <mask id="mask-2" fill="white">
                <use xlink:href="#path-1"></use>
            </mask>
            <g id="Clip-2"></g>
            <path d="M94.4956051,0.00803202063 C94.2397701,0.00803202063 83.0988992,0.00663514748 81.2325792,0.000634667381 C79.4739792,-0.00558749261 77.8039647,0.453285338 76.7083388,1.18175469 C75.3122308,2.10892924 74.0202994,3.68495138 74.0188802,6.49930156 C74.0171103,9.32377908 75.290616,10.9046903 76.676448,11.8164992 C77.6930556,12.4856015 79.240822,12.9783485 81.2432094,12.9783485 C82.0365815,12.9783485 91.8748907,12.9842852 92.060566,12.9849836 C92.1782076,12.9849836 92.2721082,12.8854564 92.2721082,12.7730081 C92.2721082,12.6602106 92.276006,9.79347768 92.276006,9.79347768 C92.276006,9.67579111 92.1799793,9.58150218 92.0612747,9.58150218 C91.8642605,9.58150218 84.515559,9.59861387 83.4698954,9.59861387 C82.3211182,9.59861387 81.3927418,9.37546339 80.7630758,8.86455703 C80.1847895,8.39276312 79.6734738,7.6628969 79.6741825,6.46577661 C79.6759542,5.26935475 80.1876242,4.55136195 80.7719344,4.09702896 C81.3736073,3.62907645 82.4284839,3.41360877 83.4922189,3.41360877 C84.555954,3.41360877 91.9308768,3.41919626 92.0928111,3.41919626 C92.2504934,3.41919626 92.4333339,3.34620964 92.5325497,3.2061731 C92.6165288,3.08883576 94.49029,0.438268952 94.6330899,0.235023908 C94.7092734,0.124670929 94.6784457,0.00803202063 94.4956051,0.00803202063 M133.731555,8.21605867 C135.019589,7.73378821 136.897956,6.64806855 136.897956,4.45427927 C136.897956,2.09042067 135.031991,1.01936818 133.909435,0.599957019 C132.941372,0.237817654 131.875865,0.0572717993 130.060216,0.0223499705 C129.307239,0.00733358405 125.209627,0.0101273304 122.068029,0.0101273304 L118.043766,0.0101273304 C117.925415,0.0101273304 117.829389,0.104765486 117.829389,0.220705958 C117.829389,0.529764143 117.836121,12.6598614 117.836121,12.7758019 C117.836121,12.8924408 117.937817,12.9863805 118.051561,12.9863805 L122.859275,12.9863805 C122.9755,12.9863805 123.07507,12.8868533 123.07507,12.7789448 C123.07507,12.6713856 123.081093,3.3493526 123.081093,3.3493526 L129.480158,3.35284479 C129.480158,3.35284479 130.297625,3.33573309 130.778822,3.50161178 C131.165409,3.63606082 131.543138,4.03416967 131.542075,4.58802987 C131.542075,5.14538226 131.146983,5.52183957 130.760042,5.67479718 C130.376644,5.8260087 129.455354,5.82077043 129.455354,5.82077043 C129.455354,5.82077043 124.832961,5.81797668 124.714965,5.81797668 C124.596969,5.81797668 124.500942,5.92099608 124.500942,6.03065062 L124.500942,8.54816526 C124.500942,8.66480417 124.60193,8.75909311 124.714965,8.75909311 C124.829063,8.75909311 128.919589,8.7608392 128.919589,8.7608392 C128.919589,8.7608392 131.21608,12.7230699 131.269231,12.8145651 C131.336556,12.9284103 131.428331,12.9958094 131.629952,12.9958094 C131.821651,12.9958094 135.842725,13 136.916028,13 C137.113751,13 137.12757,12.8330737 137.053867,12.7307527 C136.979101,12.6291302 133.731555,8.21605867 133.731555,8.21605867 M108.513025,0.189625531 C108.429401,0.0604147639 108.330539,0.00384140117 108.148053,0.00384140117 C108.008088,0.00384140117 101.964429,0 101.892851,0 C101.703278,0 101.617173,0.0646053833 101.53284,0.193466932 C101.436459,0.340138613 93.7149894,12.5383334 93.6051433,12.713641 C93.5271881,12.8369151 93.5289598,12.972761 93.7128634,12.972761 C93.8634588,12.972761 98.9181493,12.9769516 99.0322474,12.9769516 C99.1456369,12.9769516 99.2905628,12.9339977 99.3773767,12.7939612 L105.070237,3.36786117 L107.771742,7.87836458 C107.771742,7.87836458 104.273322,7.87696771 104.158161,7.87696771 C104.041936,7.87696771 103.922523,7.93633482 103.861931,8.02992532 C103.782204,8.15389781 102.42968,10.4639768 102.323731,10.6511578 C102.221327,10.8296083 102.307786,10.9361199 102.465114,10.9361199 C102.66638,10.9361199 109.623179,10.9273895 109.623179,10.9273895 C109.623179,10.9273895 110.712781,12.7244668 110.781878,12.8309783 C110.844951,12.9277118 110.946647,12.9842852 111.122047,12.9842852 C111.318706,12.9842852 116.191265,12.9863805 116.418753,12.9863805 C116.604428,12.9863805 116.584939,12.8082792 116.55234,12.755198 C116.51974,12.7021168 108.594879,0.317788642 108.513025,0.189625531 M155.454499,8.21605867 C156.744659,7.73378821 158.621609,6.64806855 158.621609,4.45427927 C158.621609,2.09042067 156.756352,1.01936818 155.633796,0.599957019 C154.666088,0.237817654 153.599518,0.0572717993 151.783869,0.0223499705 C151.031601,0.00733358405 146.934343,0.0101273304 143.792391,0.0101273304 L139.767773,0.0101273304 C139.649069,0.0101273304 139.552687,0.104765486 139.552687,0.220705958 C139.552687,0.529764143 139.559774,12.6598614 139.559774,12.7758019 C139.559774,12.8924408 139.662179,12.9863805 139.77486,12.9863805 L144.5847,12.9863805 C144.699861,12.9863805 144.798723,12.8868533 144.798723,12.7789448 C144.798723,12.6713856 144.804747,3.3493526 144.804747,3.3493526 L151.203102,3.35284479 C151.203102,3.35284479 152.021633,3.33573309 152.501766,3.50161178 C152.889417,3.63606082 153.266791,4.03416967 153.266082,4.58802987 C153.266082,5.14538226 152.870991,5.52183957 152.484049,5.67479718 C152.100297,5.8260087 151.179361,5.82077043 151.179361,5.82077043 C151.179361,5.82077043 146.556968,5.81797668 146.439681,5.81797668 C146.320622,5.81797668 146.224241,5.92099608 146.224241,6.03065062 L146.224241,8.54816526 C146.224241,8.66480417 146.325583,8.75909311 146.439681,8.75909311 C146.552362,8.75909311 150.643242,8.7608392 150.643242,8.7608392 C150.643242,8.7608392 152.940087,12.7230699 152.992884,12.8145651 C153.059855,12.9284103 153.151984,12.9958094 153.35325,12.9958094 C153.545658,12.9958094 157.566733,13 158.639326,13 C158.838112,13 158.852286,12.8330737 158.777874,12.7307527 C158.703817,12.6291302 155.454499,8.21605867 155.454499,8.21605867 M181.844129,0.0251437168 C181.623729,0.0251437168 176.267847,0.0209530973 176.094574,0.0209530973 C175.920592,0.0209530973 175.791257,0.0625100736 175.674324,0.193466932 C175.589637,0.28775587 170.03178,6.35612207 170.03178,6.35612207 C170.03178,6.35612207 164.723381,0.53046258 164.378251,0.149814646 C164.299942,0.0646053833 164.230136,0.0143179498 164.029933,0.0143179498 C163.764177,0.0143179498 158.587592,0.0108257669 158.31971,0.0108257669 C158.099663,0.0108257669 158.072025,0.152608392 158.185414,0.263659808 C158.264432,0.340138613 167.371379,9.47568903 167.371379,9.47568903 L167.369608,12.782437 C167.369608,12.8990759 167.467761,12.9940633 167.583985,12.9940633 C167.700918,12.9940633 172.4367,12.9958094 172.546546,12.9958094 C172.654975,12.9958094 172.761278,12.9018697 172.761278,12.7838339 L172.74923,9.47987965 C172.74923,9.47987965 181.890194,0.323725353 181.953976,0.25702466 C182.038309,0.167624778 182.009607,0.0251437168 181.844129,0.0251437168 M67.7519871,9.82700263 C68.6016996,9.50851555 69.8390623,8.79436415 69.8390623,7.347902 C69.8390623,5.79003922 68.6087864,5.08461828 67.8692744,4.80768817 C67.2314585,4.56847365 66.5284438,4.45043787 65.3321847,4.4263418 C64.8353971,4.41691291 62.1356644,4.4182368 60.0641803,4.4182368 C58.8502041,4.4182368 57.8031231,4.41900822 57.4119294,4.41900822 C57.3336198,4.41900822 57.2698382,4.48116908 57.2698382,4.55729866 C57.2698382,4.76124214 57.2755077,12.7572933 57.2755077,12.8323752 C57.2755077,12.9099017 57.342124,12.9713641 57.4168902,12.9713641 L60.5861262,12.9713641 C60.6630185,12.9713641 60.7278631,12.9060603 60.7278631,12.8344705 C60.7278631,12.7639284 60.7324695,6.62013109 60.7324695,6.62013109 L64.9502039,6.62257562 C64.9502039,6.62257562 65.4888039,6.61105142 65.8048771,6.72105518 C66.0603578,6.80905819 66.3098147,7.07027346 66.3098147,7.43625423 C66.3083973,7.80258422 66.0486645,8.05227529 65.7931838,8.15250094 C65.5405379,8.25342503 64.9331955,8.24888519 64.9331955,8.24888519 C64.9331955,8.24888519 61.8865618,8.24748831 61.8096696,8.24748831 C61.7306513,8.24748831 61.6672241,8.31488744 61.6672241,8.38717563 L61.6672241,10.0459625 C61.6672241,10.1231397 61.7345491,10.1853006 61.8096696,10.1853006 C61.8833728,10.1853006 64.5806251,10.1863483 64.5806251,10.1863483 C64.5806251,10.1863483 66.0940203,12.7974534 66.1283915,12.8589158 C66.1730386,12.9339977 66.2336311,12.9783485 66.3668637,12.9783485 C66.4926552,12.9783485 69.143843,12.980793 69.8504012,12.980793 C69.9815078,12.980793 69.9910751,12.8711385 69.9418215,12.8044378 C69.8925679,12.7352925 67.7519871,9.82700263 67.7519871,9.82700263 M28.4161128,4.41132542 L25.0385237,4.41132542 C24.960214,4.41132542 24.8953694,4.47488315 24.8953694,4.55206039 L24.8953694,8.58378553 C24.8953694,10.6742062 24.2571993,10.7279858 21.8069234,10.7279858 C19.3573563,10.7279858 18.7174144,10.6742062 18.7174144,8.58378553 L18.7167057,4.55206039 C18.7167057,4.47488315 18.6529241,4.41132542 18.5739058,4.41132542 L15.1952536,4.41132542 C15.1162353,4.41132542 15.0528081,4.47488315 15.0528081,4.55206039 L15.0542254,9.09189814 C15.0542254,12.7021168 17.1001969,12.97765 21.8069234,12.97765 C26.5140043,12.97765 28.5592671,12.7021168 28.5592671,9.09189814 L28.5592671,4.55206039 C28.5592671,4.47488315 28.4954855,4.41132542 28.4161128,4.41132542 M40.8397023,4.80175146 C40.2025951,4.56148928 39.500289,4.4434535 38.3058017,4.42110353 C37.8107858,4.41132542 35.1142421,4.41265331 33.0463015,4.41265331 L30.3986571,4.41265331 C30.3207018,4.41265331 30.2569202,4.47488315 30.2569202,4.55206039 C30.2569202,4.754607 30.2615267,12.7579917 30.2615267,12.8323752 C30.2615267,12.9099017 30.3288517,12.9720625 30.4032635,12.9720625 L33.5682474,12.9720625 C33.6440766,12.9720625 33.7096299,12.9060603 33.7096299,12.8348197 C33.7096299,12.7639284 33.712819,6.6145436 33.712819,6.6145436 L37.9238209,6.61733734 C37.9238209,6.61733734 38.4620666,6.60162252 38.7781398,6.71127706 C39.0336205,6.79928007 39.3004401,7.07900392 39.3004401,7.44533391 C39.2993771,7.81166389 39.0212185,8.07567292 38.7668008,8.17589857 C38.5141549,8.27542578 37.9078755,8.27996562 37.9078755,8.27996562 C37.9078755,8.27996562 35.1812128,8.27891796 35.1046749,8.27891796 C35.0263653,8.27891796 34.9632924,8.34631709 34.9632924,8.41790684 L34.9632924,10.2907645 C34.9632924,10.3679418 35.0316804,10.4308011 35.1046749,10.4308011 C35.1794411,10.4308011 37.5560138,10.4328964 37.5560138,10.4328964 C38.3337947,10.4328964 39.9517209,10.3337184 40.7217064,10.059582 C41.4913375,9.78474722 42.8353572,8.80728523 42.8353572,7.36466448 C42.8353572,5.80889701 41.5774426,5.07798313 40.8397023,4.80175146 M10.2915128,7.70654919 L4.39419676,7.70654919 C4.0100899,7.70654919 3.72555316,7.37968087 3.72555316,7.12265621 C3.72555316,6.86563155 3.96296239,6.49092032 4.39419676,6.49092032 L13.304484,6.49092032 C13.3838566,6.49092032 13.4472839,6.42771181 13.4472839,6.35053457 L13.4472839,4.55206039 C13.4472839,4.47488315 13.3838566,4.41132542 13.304484,4.41132542 L3.58629671,4.41132542 C1.26854483,4.41132542 0,5.63917692 0,7.12265621 C0,8.60543706 1.48823695,9.68033095 3.6812604,9.68033095 L9.42868976,9.68033095 C9.86098716,9.68033095 10.1210743,9.9886907 10.1210743,10.2848278 C10.1210743,10.5806157 9.81385966,10.9004997 9.42868976,10.9004997 L0.23280278,10.9004997 C0.154138827,10.9004997 0.0903572434,10.9640574 0.0903572434,11.0412346 L0.0903572434,12.8376135 C0.0903572434,12.9147907 0.154138827,12.9783485 0.23280278,12.9783485 L10.2915128,12.972761 C12.4859537,12.972761 13.9107634,11.7291946 13.9107634,10.2464138 C13.9107634,8.76433138 12.6103278,7.70654919 10.2915128,7.70654919 M55.4513544,4.40189652 L46.8273756,4.40189652 L46.8273756,4.40957933 L44.0989412,4.40957933 C44.0202773,4.40957933 43.9564957,4.47278784 43.9564957,4.55066351 L43.9564957,12.8201526 C43.9564957,12.897679 44.0202773,12.9605383 44.0989412,12.9605383 L46.8273756,12.9605383 L55.4513544,12.9706657 C55.530727,12.9706657 55.5945086,12.9074572 55.5945086,12.828883 L55.5945086,11.003519 C55.5945086,10.9273895 55.530727,10.8638317 55.4513544,10.8638317 L47.3585345,10.8638317 L47.3585345,9.63807554 L54.4365185,9.63807554 C54.5148281,9.63807554 54.5789641,9.57591468 54.5789641,9.49838822 L54.5789641,7.88674582 C54.5789641,7.80956858 54.5148281,7.74601085 54.4365185,7.74601085 L47.3585345,7.74601085 L47.3585345,6.50663515 L55.4513544,6.50663515 C55.530727,6.50663515 55.5945086,6.44412507 55.5945086,6.36694783 L55.5945086,4.54228228 C55.5945086,4.46615269 55.530727,4.40189652 55.4513544,4.40189652" id="Fill-1" fill="#FFFFFF" mask="url(#mask-2)"></path>
        </g>
    </g>
</svg>